<?xml version="1.0" encoding="UTF-8"?>
<svg id="Layer_2" data-name="Layer 2" xmlns="http://www.w3.org/2000/svg" viewBox="0 0 818.77 510.87">
  <defs>
    <style>
      .cls-1 {
        fill: #ffffff;
        stroke-width: 0px;
      }
    </style>
  </defs>
  <g id="Layer_1-2" data-name="Layer 1">
    <path class="cls-1" d="m818.38,69.33V0H162.09l-32.35,69.33-32.36,69.33-32.36,69.34-32.35,69.33L0,347.33h82.85l32.67-70h94.07v70h608.79v-208.67h-191.45v-69.33h191.45ZM284.26,7.72h270.67v7.72h-270.67v-7.72Zm0,15.44h270.67v7.71h-270.67v-7.71Zm0,15.43h270.67v7.72h-270.67v-7.72Zm0,15.44h270.67v7.72h-270.67v-7.72Zm197.33,131.21v-7.72h73.34v7.72h-73.34Zm73.34,7.72v7.72h-73.34v-7.72h73.34Zm-73.34-23.15v-7.72h73.34v7.72h-73.34Zm0-15.44v-7.72h73.34v7.72h-73.34Zm0-15.44v-7.72h73.34v7.72h-73.34Zm0-15.43v-7.72h73.34v7.72h-73.34Zm0-15.44v-7.72h73.34v7.72h-73.34Zm0-15.44v-7.72h73.34v7.72h-73.34Zm0-15.44v-7.71h73.34v7.71h-73.34Zm-197.33-7.71h72v7.71h-72v-7.71Zm0,15.43h72v7.72h-72v-7.72Zm0,15.44h72v7.72h-72v-7.72Zm0,15.44h72v7.72h-72v-7.72Zm0,15.43h72v7.72h-72v-7.72Zm0,15.44h72v7.72h-72v-7.72Zm0,15.44h72v7.72h-72v-7.72Zm0,15.43h72v7.72h-72v-7.72Zm0,15.44h72v7.72h-72v-7.72Zm0,15.44h72v7.72h-72v-7.72Zm0,15.43h72v7.72h-72v-7.72Zm0,15.44h72v7.72h-72v-7.72Zm0,15.44h72v7.72h-72v-7.72Zm0,15.44h72v7.18h-72v-7.18Zm-74.67-62.15h-61.71l32.36-69.34,29.35-62.89v132.23Zm345.34,131.61h-270.67v-7.92h270.67v7.92Zm0-15.64h-270.67v-7.81h270.67v7.81Zm0-15.53h-270.67v-7.82h270.67v7.82Zm0-15.54h-270.67v-7.85h270.67v7.85Zm190.66-84.9v69.33h-264v-7.18h73.34v-7.72h-73.34v-7.72h73.34v-7.72h-73.34v-7.72h73.34v-7.72h-73.34v-7.72h73.34v-7.71h-73.34v-7.72h73.34v-.4h190.66Z"/>
    <g>
      <path class="cls-1" d="m52.16,496.64c-3.81,4.71-7.77,8.26-11.88,10.65-4.12,2.39-8.39,3.58-12.81,3.58-7,0-12.58-2.51-16.74-7.53-4.17-5.02-6.25-11.78-6.25-20.29,0-5.63.98-10.62,2.93-14.97,1.95-4.34,4.63-7.74,8.02-10.19,3.4-2.45,8.54-4.25,15.43-5.42,9.26-1.62,16.05-3.54,20.37-5.79l.08-4.22c0-6.67-1-11.35-3.01-14.05-2.83-3.92-7.18-5.88-13.04-5.88-5.3,0-9.26,1.31-11.88,3.92s-4.55,7.52-5.79,14.72l-11.19-2.2c1.59-10.47,4.82-18.09,9.68-22.86s11.82-7.16,20.87-7.16c7.05,0,12.58,1.58,16.59,4.73,4.01,3.15,6.55,7.06,7.6,11.71,1.05,4.65,1.58,11.45,1.58,20.38v22.04c0,15.43.24,25.14.73,29.15.49,4.01,1.45,7.91,2.89,11.71h-11.88c-1.18-3.37-1.96-7.38-2.31-12.03Zm-.93-36.91c-4.17,2.45-10.37,4.53-18.6,6.24-4.78.98-8.13,2.1-10.03,3.35-1.9,1.25-3.38,3.03-4.44,5.33-1.06,2.29-1.58,4.94-1.58,7.94,0,4.65,1.21,8.37,3.63,11.16,2.42,2.79,5.76,4.18,10.03,4.18s7.75-1.25,11.07-3.76c3.32-2.51,5.8-5.86,7.45-10.05,1.65-4.19,2.47-10.3,2.47-18.32v-6.06Z"/>
      <path class="cls-1" d="m80.09,508.67v-134.61h11.34v134.61h-11.34Z"/>
      <path class="cls-1" d="m153.24,508.67v-14.32c-2.62,5.51-5.71,9.64-9.26,12.4-3.55,2.75-7.56,4.13-12.04,4.13-5.3,0-9.83-1.7-13.58-5.1-3.76-3.4-6.26-7.7-7.52-12.9-1.26-5.2-1.89-12.3-1.89-21.3v-60.42h11.34v54.08c0,10.04.42,16.76,1.27,20.15.85,3.4,2.42,6.12,4.71,8.17,2.29,2.05,4.9,3.08,7.83,3.08,5.45,0,9.93-2.66,13.43-7.99,2.98-4.59,4.48-13.01,4.48-25.25v-52.24h11.42v97.51h-10.19Z"/>
      <path class="cls-1" d="m181.41,508.67v-97.51h10.19v13.59c2.26-5.05,5.16-8.95,8.71-11.69,3.54-2.74,7.42-4.11,11.63-4.11,4.72,0,8.72,1.45,11.98,4.34,3.26,2.89,5.59,7.11,6.97,12.65,2.68-5.66,5.77-9.91,9.25-12.74,3.48-2.83,7.34-4.25,11.58-4.25,6.45,0,11.54,2.6,15.25,7.8,3.72,5.2,5.58,13.53,5.58,24.97v66.94h-11.34v-61.49c0-6.99-.43-11.93-1.28-14.84-.85-2.91-2.24-5.16-4.15-6.76-1.91-1.59-4.06-2.39-6.44-2.39-4.91,0-8.92,2.31-12.03,6.94-3.1,4.63-4.65,11.9-4.65,21.83v56.71h-11.34v-63.42c0-8.09-1.04-13.79-3.12-17.1s-4.95-4.96-8.6-4.96c-5.2,0-9.3,2.5-12.31,7.49s-4.51,14.11-4.51,27.34v50.65h-11.34Z"/>
      <path class="cls-1" d="m289.28,393.07v-19.01h11.34v19.01h-11.34Zm0,115.6v-97.51h11.34v97.51h-11.34Z"/>
      <path class="cls-1" d="m318.06,508.67v-97.51h10.26v13.77c2.46-5.36,5.48-9.36,9.05-12.01,3.57-2.65,7.66-3.97,12.29-3.97,3.59,0,6.92.84,9.97,2.53,3.06,1.68,5.52,3.89,7.4,6.61,1.87,2.72,3.27,6.26,4.2,10.6.92,4.35,1.39,11.02,1.39,20.02v59.96h-11.34v-59.38c0-7.17-.52-12.41-1.54-15.72-1.03-3.31-2.64-5.87-4.82-7.68-2.19-1.81-4.72-2.71-7.6-2.71-5.45,0-9.8,2.42-13.04,7.26-3.24,4.84-4.86,13.14-4.86,24.91v53.31h-11.34Z"/>
      <path class="cls-1" d="m390.13,393.07v-19.01h11.34v19.01h-11.34Zm0,115.6v-97.51h11.34v97.51h-11.34Z"/>
      <path class="cls-1" d="m462.89,508.67v-14.32c-2.62,5.51-5.71,9.64-9.26,12.4-3.55,2.75-7.56,4.13-12.04,4.13-5.3,0-9.83-1.7-13.58-5.1-3.76-3.4-6.26-7.7-7.52-12.9-1.26-5.2-1.89-12.3-1.89-21.3v-60.42h11.34v54.08c0,10.04.42,16.76,1.27,20.15.85,3.4,2.42,6.12,4.71,8.17,2.29,2.05,4.9,3.08,7.83,3.08,5.45,0,9.93-2.66,13.43-7.99,2.98-4.59,4.48-13.01,4.48-25.25v-52.24h11.42v97.51h-10.19Z"/>
      <path class="cls-1" d="m491.06,508.67v-97.51h10.19v13.59c2.26-5.05,5.16-8.95,8.7-11.69,3.54-2.74,7.42-4.11,11.63-4.11,4.72,0,8.72,1.45,11.98,4.34,3.26,2.89,5.59,7.11,6.97,12.65,2.68-5.66,5.77-9.91,9.25-12.74s7.34-4.25,11.58-4.25c6.45,0,11.54,2.6,15.25,7.8,3.72,5.2,5.58,13.53,5.58,24.97v66.94h-11.34v-61.49c0-6.99-.43-11.93-1.28-14.84-.85-2.91-2.24-5.16-4.15-6.76-1.91-1.59-4.06-2.39-6.44-2.39-4.91,0-8.92,2.31-12.03,6.94-3.1,4.63-4.66,11.9-4.66,21.83v56.71h-11.34v-63.42c0-8.09-1.04-13.79-3.12-17.1-2.08-3.31-4.95-4.96-8.6-4.96-5.2,0-9.3,2.5-12.31,7.49-3.01,4.99-4.51,14.11-4.51,27.34v50.65h-11.34Z"/>
      <path class="cls-1" d="m594.61,459.91c0-16.83,2.97-29.53,8.91-38.1,5.94-8.57,13.46-12.85,22.57-12.85s16.44,4.29,22.45,12.85c6.02,8.57,9.03,20.93,9.03,37.09,0,17.51-2.96,30.55-8.87,39.11-5.92,8.57-13.45,12.86-22.61,12.86s-16.5-4.3-22.49-12.9c-5.99-8.6-8.99-21.29-8.99-38.06Zm11.65-.05c0,12.62,1.93,22.02,5.79,28.18,3.86,6.16,8.64,9.24,14.35,9.24,5.35,0,9.94-3.11,13.77-9.33,3.83-6.22,5.75-15.58,5.75-28.08s-1.93-21.92-5.79-28.08c-3.86-6.16-8.64-9.24-14.35-9.24-5.4,0-10.01,3.1-13.81,9.29-3.81,6.19-5.71,15.54-5.71,28.04Z"/>
      <path class="cls-1" d="m663.59,508.67l24.52-50.64-22.59-46.87h14.23l10.22,22.82c1.91,4.22,3.48,7.87,4.72,10.95,1.93-4.09,3.66-7.63,5.17-10.61l11.3-23.16h13.54l-23.19,45.79,24.96,51.72h-13.96l-13.83-30.35-3.58-8.17-17.71,38.52h-13.81Z"/>
      <path class="cls-1" d="m735.82,393.07v-19.01h11.34v19.01h-11.34Zm0,115.6v-97.51h11.34v97.51h-11.34Z"/>
      <path class="cls-1" d="m808.12,508.67v-12.3c-2.06,4.71-4.71,8.31-7.95,10.79-3.24,2.48-6.74,3.72-10.49,3.72-7.92,0-14.78-4.45-20.56-13.36s-8.68-21.44-8.68-37.6c0-11.08,1.28-20.47,3.85-28.19s6-13.44,10.28-17.17c4.29-3.73,9.05-5.6,14.29-5.6,3.75,0,7.23,1.18,10.44,3.54,3.21,2.36,5.87,5.65,7.97,9.87v-48.3h11.5v134.61h-10.65Zm-36.04-48.66c0,12.61,1.84,21.98,5.52,28.1,3.68,6.12,7.97,9.18,12.86,9.18s9.03-2.94,12.58-8.81c3.55-5.88,5.33-14.75,5.33-26.63,0-13.65-1.78-23.61-5.33-29.89-3.55-6.27-8.03-9.41-13.44-9.41-4.79,0-8.91,3.02-12.35,9.04-3.45,6.03-5.17,15.5-5.17,28.42Z"/>
    </g>
  </g>
</svg>